Patient4_TMGait_0pt7_02_right_44_GRF.mot
version=1
nRows=58
nColumns=19
inDegrees=no
endheader
time	F1x	F1y	F1z	M1x	M1y	M1z	F2x	F2y	F2z	M2x	M2y	M2z	EC1x	EC1y	EC1z	EC2x	EC2y	EC2z
49.87	-25.3815	818.5625	68.7034	-285.6511	-73.9394	773.3698	23.7211	20.3162	-2.6874	5.8488	5.1918	14.0386	-0.0592	0.0182	-0.0073	-0.0462	0.0165	0.9585
49.8811	-17.1182	818.4327	70.7389	-286.523	-71.9383	773.3848	15.9489	15.1932	-2.0659	4.5583	3.774	11.1553	-0.0592	0.0182	-0.0073	-0.0462	0.0165	0.9585
49.8921	-9.6846	817.9354	72.4245	-287.1145	-69.8722	771.933	9.4542	10.8737	-1.433	3.4494	2.4699	8.6702	-0.0592	0.0182	-0.0073	-0.0462	0.0165	0.9585
49.9032	-3.3749	816.5105	73.5556	-287.1738	-67.733	768.4765	4.5263	7.6212	-0.88629	2.6069	1.4244	6.7934	-0.0592	0.0182	-0.0073	-0.0462	0.0165	0.9585
49.9143	1.7832	813.5143	74.1054	-286.4714	-65.5377	762.578	1.1779	5.3974	-0.46194	2.0311	0.65759	5.4797	-0.0592	0.0182	-0.0073	-0.0462	0.0165	0.9585
49.9254	5.9572	808.3602	74.0591	-284.831	-63.2351	753.9292	-0.88404	4.0614	-0.15912	1.6874	0.15456	4.6842	-0.0592	0.0182	-0.0073	-0.0462	0.0165	0.9585
49.9364	9.3362	800.6277	73.5331	-282.1438	-60.8678	742.4369	-1.9265	3.3335	0.031844	1.5007	-0.14148	4.1881	-0.0592	0.0182	-0.0073	-0.0462	0.0165	0.9585
49.9475	12.1091	790.1438	72.574	-278.3942	-58.4103	728.1667	-2.3067	2.9998	0.13556	1.4059	-0.27707	3.8945	-0.0592	0.0182	-0.0073	-0.0462	0.0165	0.9585
49.9586	14.4278	777.0094	71.3137	-273.653	-55.9167	711.4282	-2.2437	2.7627	0.18218	1.3153	-0.31947	3.5624	-0.0592	0.0182	-0.0073	-0.0462	0.0165	0.9585
49.9696	16.4428	761.6661	69.8186	-268.1026	-53.3866	692.7503	-1.9766	2.4188	0.19355	1.1587	-0.3048	3.071	-0.0592	0.0182	-0.0073	-0.0462	0.0165	0.9585
49.9807	18.2482	744.8219	68.2046	-262.0075	-50.8787	672.8617	-1.5982	1.7145	0.19886	0.85289	-0.29057	2.1644	-0.0592	0.0182	-0.0073	-0.0462	0.0165	0.9585
49.9918	20.0014	727.422	66.5665	-255.7044	-48.4185	652.66	-1.2233	0.46407	0.20829	0.33033	-0.29356	0.68863	-0.0592	0.0182	-0.0073	-0.0462	0.0165	0.9585
50.0029	21.8054	710.5028	64.9958	-249.5524	-46.043	633.0729	-0.85204	-1.4909	0.23471	-0.46353	-0.34557	-1.5314	-0.0592	0.0182	-0.0073	-0.0462	0.0165	0.9585
50.0139	23.8046	695.0964	63.5962	-243.8966	-43.7907	615.004	-0.53408	-4.1728	0.28485	-1.5399	-0.44732	-4.4964	-0.0592	0.0182	-0.0073	-0.0462	0.0165	0.9585
50.025	26.091	682.0428	62.4512	-239.013	-41.6958	599.1789	-0.22167	-7.4571	0.35239	-2.8495	-0.60009	-8.095	-0.0592	0.0182	-0.0073	-0.0462	0.0165	0.9585
50.0361	28.7212	671.8953	61.6631	-235.0762	-39.8173	586.0509	0.078556	-10.9095	0.43489	-4.2265	-0.79313	-11.8578	-0.0592	0.0182	-0.0073	-0.0462	0.0165	0.9585
50.0471	31.7393	664.8937	61.2618	-232.1505	-38.1651	575.8367	0.41115	-13.7341	0.49705	-5.3562	-0.99304	-14.9323	-0.0592	0.0182	-0.0073	-0.0462	0.0165	0.9585
50.0582	35.1124	660.8482	61.2818	-230.1602	-36.7778	568.3603	0.76864	-14.585	0.50479	-5.7095	-1.1481	-15.8509	-0.0592	0.0182	-0.0073	-0.0462	0.0165	0.9585
50.0693	38.7747	659.1976	61.65	-228.9061	-35.6207	563.1789	1.1314	-11.5252	0.39197	-4.5212	-1.1624	-12.5239	-0.0592	0.0182	-0.0073	-0.0462	0.0165	0.9585
50.0804	42.6149	658.9198	62.2833	-228.048	-34.6685	559.4643	1.426	-1.9495	0.08668	-0.76561	-0.90637	-2.1202	-0.0592	0.0182	-0.0073	-0.0462	0.0165	0.9585
50.0914	46.4635	658.6912	62.9794	-227.157	-33.817	556.1575	1.5216	17.2488	-0.50195	6.7823	-0.20807	18.7391	-0.0592	0.0182	-0.0073	-0.0462	0.0165	0.9585
50.1025	50.1872	656.8919	63.5338	-225.7203	-32.9483	551.9527	1.2168	49.3349	-1.459	19.4086	1.1253	53.6124	-0.0592	0.0182	-0.0073	-0.0462	0.0165	0.9585
50.1136	53.6383	651.8178	63.6611	-223.2028	-31.8738	545.456	0.22665	97.0019	-2.8512	38.173	3.2923	105.4456	-0.0592	0.0182	-0.0073	-0.0462	0.0165	0.9585
50.1246	56.7101	641.6685	63.0858	-219.0414	-30.4026	535.1396	-1.8018	161.1779	-4.7045	63.4442	6.4736	175.2668	-0.0592	0.0182	-0.0073	-0.0462	0.0165	0.9585
50.1357	59.2091	624.6016	61.545	-212.6565	-28.3786	519.4563	-5.5552	239.5618	-6.9261	94.3184	10.8327	260.565	-0.0592	0.0182	-0.0073	-0.0462	0.0165	0.9585
50.1468	60.8672	598.8248	58.845	-203.4748	-25.7303	496.8791	-12.1585	325.0314	-9.3207	127.9991	16.5426	353.5497	-0.0592	0.0182	-0.0073	-0.0462	0.0165	0.9585
50.1579	61.3067	563.0075	54.9505	-191.0569	-22.5531	466.31	-21.7343	406.4531	-12.4802	160.0961	24.1508	442.0339	-0.0592	0.0182	-0.0073	-0.0462	0.0165	0.9585
50.1689	60.1505	516.9263	49.9339	-175.3156	-19.0364	427.5374	-32.8006	475.6007	-17.6747	187.2988	34.3144	516.8571	-0.0592	0.0182	-0.0073	-0.0462	0.0165	0.9585
50.18	57.0767	461.9728	44.0316	-156.6701	-15.4692	381.7235	-43.8556	531.3861	-24.1646	209.1178	45.6922	576.6221	-0.0592	0.0182	-0.0073	-0.0462	0.0165	0.9585
50.1911	52.0055	400.8222	37.6141	-135.9669	-12.1721	331.0456	-53.454	576.5615	-31.6417	226.6301	57.4195	624.0912	-0.0592	0.0182	-0.0073	-0.0462	0.0165	0.9585
50.2021	45.0551	336.993	31.1199	-114.3439	-9.4411	278.3718	-60.84	615.183	-39.3953	241.4597	68.4546	663.6517	-0.0592	0.0182	-0.0073	-0.0462	0.0165	0.9585
50.2132	36.6498	274.3512	24.8913	-93.0796	-7.4	226.8486	-65.5675	650.348	-46.4157	254.8847	77.6421	698.5994	-0.0592	0.0182	-0.0073	-0.0462	0.0165	0.9585
50.2243	27.5198	216.368	19.2595	-73.3479	-6.0619	179.2557	-67.9042	683.2892	-52.5535	267.4144	84.8882	730.4706	-0.0592	0.0182	-0.0073	-0.0462	0.0165	0.9585
50.2354	18.5699	165.5774	14.3952	-56.023	-5.2482	137.6189	-68.0562	713.8571	-57.1808	279.025	89.6966	759.1638	-0.0592	0.0182	-0.0073	-0.0462	0.0165	0.9585
50.2464	10.6625	123.0817	10.396	-41.5122	-4.7487	102.7522	-66.5356	741.2309	-60.8941	289.3548	92.8397	784.0651	-0.0592	0.0182	-0.0073	-0.0462	0.0165	0.9585
50.2575	4.217	88.8829	7.2178	-29.8373	-4.3834	74.6531	-63.6275	764.3491	-63.6769	297.987	94.4527	804.1513	-0.0592	0.0182	-0.0073	-0.0462	0.0165	0.9585
50.2686	-0.58633	62.1652	4.7845	-20.7406	-4.0462	52.6201	-59.7803	782.2542	-66.0453	304.5153	95.212	818.6438	-0.0592	0.0182	-0.0073	-0.0462	0.0165	0.9585
50.2796	-3.8803	41.8654	3.0034	-13.8608	-3.709	35.8457	-55.3396	794.1965	-68.1042	308.6686	95.3631	826.8572	-0.0592	0.0182	-0.0073	-0.0462	0.0165	0.9585
50.2907	-5.7224	26.7998	1.7489	-8.7957	-3.3051	23.3365	-50.7177	800.0525	-69.7706	310.4156	94.9869	828.8134	-0.0592	0.0182	-0.0073	-0.0462	0.0165	0.9585
50.3018	-6.3142	15.9477	0.93984	-5.1842	-2.8401	14.3237	-46.1592	800.1626	-71.0643	309.9308	94.1985	824.9355	-0.0592	0.0182	-0.0073	-0.0462	0.0165	0.9585
50.3129	-5.7769	8.434	0.44751	-2.7198	-2.2664	8.034	-41.7974	795.4822	-71.5889	307.6222	92.6772	816.2422	-0.0592	0.0182	-0.0073	-0.0462	0.0165	0.9585
50.3239	-4.6444	3.6574	0.19831	-1.1782	-1.6966	4.011	-37.6907	787.071	-71.513	303.9141	90.6091	803.8594	-0.0592	0.0182	-0.0073	-0.0462	0.0165	0.9585
50.335	-3.3153	1.0306	0.093714	-0.35067	-1.1846	1.7409	-33.871	775.952	-70.7826	299.2163	87.962	788.8274	-0.0592	0.0182	-0.0073	-0.0462	0.0165	0.9585
50.3461	-2.1131	-0.093748	0.090067	-0.012351	-0.79533	0.7438	-30.3889	763.1775	-69.7564	293.9201	85.1036	772.2395	-0.0592	0.0182	-0.0073	-0.0462	0.0165	0.9585
50.3571	-1.1031	-0.25264	0.13845	0.016607	-0.51502	0.5593	-27.2475	749.9479	-68.6053	288.4848	82.2053	755.2785	-0.0592	0.0182	-0.0073	-0.0462	0.0165	0.9585
50.3682	-0.37022	0.14198	0.19573	-0.12617	-0.33054	0.86328	-24.473	737.6437	-67.5688	283.4202	79.5199	739.3282	-0.0592	0.0182	-0.0073	-0.0462	0.0165	0.9585
50.3793	0.13463	0.79074	0.25678	-0.34205	-0.22738	1.3878	-22.0131	727.4504	-66.8646	279.1773	77.252	725.4964	-0.0592	0.0182	-0.0073	-0.0462	0.0165	0.9585
50.3904	0.43995	1.5318	0.29039	-0.57804	-0.16855	2.0214	-19.8397	720.346	-66.4903	276.1275	75.4002	714.7068	-0.0592	0.0182	-0.0073	-0.0462	0.0165	0.9585
50.4014	0.5852	2.2236	0.32696	-0.79267	-0.16441	2.6264	-17.8488	716.8717	-66.5397	274.4816	74.0242	707.4093	-0.0592	0.0182	-0.0073	-0.0462	0.0165	0.9585
50.4125	0.64065	2.8515	0.34057	-0.98395	-0.17143	3.1981	-16.003	717.2095	-66.8464	274.3119	72.9519	703.7287	-0.0592	0.0182	-0.0073	-0.0462	0.0165	0.9585
50.4236	0.6174	3.3648	0.35583	-1.1415	-0.20434	3.6874	-14.2048	720.9957	-67.4218	275.4783	72.1672	703.2472	-0.0592	0.0182	-0.0073	-0.0462	0.0165	0.9585
50.4346	0.56956	3.7855	0.35715	-1.2737	-0.23584	4.1163	-12.4546	727.4528	-68.1451	277.6791	71.553	705.2029	-0.0592	0.0182	-0.0073	-0.0462	0.0165	0.9585
50.4457	0.49861	4.0973	0.35377	-1.3731	-0.27001	4.479	-10.6965	735.4369	-68.9798	280.4757	71.0597	708.4835	-0.0592	0.0182	-0.0073	-0.0462	0.0165	0.9585
50.4568	0.43482	4.2956	0.34791	-1.4363	-0.30154	4.7235	-8.9529	743.7287	-69.865	283.3953	70.6323	711.9699	-0.0592	0.0182	-0.0073	-0.0462	0.0165	0.9585
50.4679	0.35892	4.3593	0.34756	-1.4532	-0.34225	4.8381	-7.1885	751.1118	-70.6826	285.9763	70.1464	714.5152	-0.0592	0.0182	-0.0073	-0.0462	0.0165	0.9585
50.4789	0.29916	4.2262	0.36592	-1.4036	-0.39749	4.7098	-5.3995	756.621	-71.4162	287.8465	69.5816	715.2665	-0.0592	0.0182	-0.0073	-0.0462	0.0165	0.9585
50.49	0.21187	3.8464	0.38836	-1.2648	-0.46346	4.2895	-3.5288	759.5516	-71.9379	288.7492	68.8068	713.5689	-0.0592	0.0182	-0.0073	-0.0462	0.0165	0.9585
50.5011	0.1455	3.078	0.42279	-0.99282	-0.53089	3.3959	-1.5683	759.5811	-72.2578	288.5626	67.8346	709.1519	-0.0592	0.0182	-0.0073	-0.0462	0.0165	0.9585
